<?xml version="1.0" encoding="UTF-8" standalone="no"?>
<!DOCTYPE svg PUBLIC "-//W3C//DTD SVG 1.1//EN" "http://www.w3.org/Graphics/SVG/1.1/DTD/svg11.dtd">
<svg width="100%" height="100%" viewBox="0 0 1318 187" version="1.1" xmlns="http://www.w3.org/2000/svg" xmlns:xlink="http://www.w3.org/1999/xlink" xml:space="preserve" xmlns:serif="http://www.serif.com/" style="fill-rule:evenodd;clip-rule:evenodd;stroke-linejoin:round;stroke-miterlimit:2;">
    <g transform="matrix(1,0,0,1,-425.174,-685.612)">
        <g transform="matrix(1,0,0,1,-228.543,0)">
            <path d="M709.718,778.945C709.718,784.101 710.696,788.945 712.651,793.479C714.607,798.012 717.273,801.968 720.651,805.345C724.029,808.723 727.984,811.39 732.518,813.345C737.051,815.301 741.896,816.279 747.051,816.279C752.207,816.279 757.051,815.301 761.584,813.345C766.118,811.39 770.073,808.723 773.451,805.345C776.829,801.968 779.496,798.012 781.451,793.479C783.407,788.945 784.384,784.101 784.384,778.945C784.384,773.79 783.407,768.945 781.451,764.412C779.496,759.879 776.829,755.923 773.451,752.545C770.073,749.168 766.118,746.501 761.584,744.545C757.051,742.59 752.207,741.612 747.051,741.612C741.896,741.612 737.051,742.59 732.518,744.545C727.984,746.501 724.029,749.168 720.651,752.545C717.273,755.923 714.607,759.879 712.651,764.412C710.696,768.945 709.718,773.79 709.718,778.945ZM653.718,778.945C653.718,766.145 656.162,754.057 661.051,742.679C665.94,731.301 672.607,721.39 681.051,712.945C689.496,704.501 699.407,697.834 710.784,692.945C722.162,688.057 734.251,685.612 747.051,685.612C759.851,685.612 771.94,688.057 783.318,692.945C794.696,697.834 804.607,704.501 813.051,712.945C821.496,721.39 828.162,731.301 833.051,742.679C837.94,754.057 840.384,766.145 840.384,778.945C840.384,786.59 839.496,793.968 837.718,801.079C835.94,808.19 833.451,814.857 830.251,821.079L846.784,821.079L822.784,867.745L775.584,867.745C766.162,870.768 756.651,872.279 747.051,872.279C734.251,872.279 722.162,869.834 710.784,864.945C699.407,860.057 689.496,853.39 681.051,844.945C672.607,836.501 665.94,826.59 661.051,815.212C656.162,803.834 653.718,791.745 653.718,778.945Z" style="fill:white;fill-rule:nonzero;"/>
        </g>
        <g transform="matrix(1,0,0,1,-228.543,0)">
            <path d="M927.851,872.279C916.651,872.279 906.518,870.857 897.451,868.012C888.384,865.168 880.651,860.901 874.251,855.212C867.851,849.523 862.918,842.323 859.451,833.612C855.984,824.901 854.251,814.679 854.251,802.945L854.251,689.879L911.051,689.879L911.051,800.545C911.051,806.768 912.34,811.523 914.918,814.812C917.496,818.101 921.807,819.745 927.851,819.745C933.896,819.745 938.207,818.101 940.784,814.812C943.362,811.523 944.651,806.768 944.651,800.545L944.651,689.879L1001.72,689.879L1001.72,802.945C1001.72,814.679 999.984,824.901 996.518,833.612C993.051,842.323 988.073,849.523 981.584,855.212C975.096,860.901 967.318,865.168 958.251,868.012C949.184,870.857 939.051,872.279 927.851,872.279Z" style="fill:white;fill-rule:nonzero;"/>
        </g>
        <g transform="matrix(1,0,0,1,-228.543,0)">
            <rect x="1019.58" y="689.879" width="60.267" height="177.867" style="fill:white;fill-rule:nonzero;"/>
        </g>
        <g transform="matrix(1,0,0,1,-228.543,0)">
            <path d="M1094.52,778.945C1094.52,764.723 1097.01,751.879 1101.98,740.412C1106.96,728.945 1113.72,719.123 1122.25,710.945C1130.78,702.768 1140.74,696.501 1152.12,692.145C1163.5,687.79 1175.58,685.612 1188.38,685.612C1198.52,685.612 1207.54,686.59 1215.45,688.545C1223.36,690.501 1230.16,692.723 1235.85,695.212C1242.43,698.057 1248.12,701.168 1252.92,704.545L1224.92,753.879C1222.07,751.745 1218.96,749.701 1215.58,747.745C1212.56,746.323 1208.96,744.945 1204.78,743.612C1200.61,742.279 1195.85,741.612 1190.52,741.612C1185.01,741.612 1179.94,742.59 1175.32,744.545C1170.7,746.501 1166.65,749.168 1163.18,752.545C1159.72,755.923 1157.01,759.879 1155.05,764.412C1153.1,768.945 1152.12,773.79 1152.12,778.945C1152.12,784.101 1153.14,788.945 1155.18,793.479C1157.23,798.012 1160.03,801.968 1163.58,805.345C1167.14,808.723 1171.32,811.39 1176.12,813.345C1180.92,815.301 1186.16,816.279 1191.85,816.279C1197.54,816.279 1202.61,815.568 1207.05,814.145C1211.5,812.723 1215.23,811.123 1218.25,809.345C1221.81,807.39 1224.92,805.079 1227.58,802.412L1255.58,851.745C1250.78,855.657 1245.1,859.123 1238.52,862.145C1232.83,864.634 1225.98,866.945 1217.98,869.079C1209.98,871.212 1200.83,872.279 1190.52,872.279C1176.65,872.279 1163.85,870.012 1152.12,865.479C1140.38,860.945 1130.25,854.59 1121.72,846.412C1113.18,838.234 1106.52,828.412 1101.72,816.945C1096.92,805.479 1094.52,792.812 1094.52,778.945Z" style="fill:white;fill-rule:nonzero;"/>
        </g>
        <g transform="matrix(1,0,0,1,-228.543,0)">
            <path d="M1262.25,689.879L1319.85,689.879L1319.85,730.945L1353.45,689.879L1423.05,689.879L1360.38,771.212L1426.25,867.745L1357.72,867.745L1319.85,812.812L1319.85,867.745L1262.25,867.745L1262.25,689.879Z" style="fill:white;fill-rule:nonzero;"/>
        </g>
        <g transform="matrix(1,0,0,1,-228.543,0)">
            <g transform="matrix(1,0,0,1,228.543,0)">
                <path d="M1320.64,694.365L1320.64,689.879L1380.91,689.879L1380.91,867.745L1320.64,867.745L1320.64,784.471L1365.59,732.892L1320.96,693.997L1320.64,694.365Z" style="fill:white;fill-rule:nonzero;"/>
            </g>
        </g>
        <g transform="matrix(1,0,0,1,-228.543,0)">
            <path d="M1623.32,812.545C1627.23,813.79 1631.32,814.768 1635.58,815.479C1639.14,816.368 1643.18,817.079 1647.72,817.612C1652.25,818.145 1656.83,818.412 1661.45,818.412C1669.63,818.412 1673.72,815.39 1673.72,809.345C1673.72,807.034 1672.47,804.679 1669.98,802.279C1667.5,799.879 1664.34,797.212 1660.52,794.279C1656.7,791.345 1652.61,788.101 1648.25,784.545C1643.9,780.99 1639.81,776.901 1635.98,772.279C1632.16,767.657 1629.01,762.457 1626.52,756.679C1624.03,750.901 1622.78,744.279 1622.78,736.812C1622.78,728.457 1624.3,721.079 1627.32,714.679C1630.34,708.279 1634.52,702.945 1639.85,698.679C1645.18,694.412 1651.45,691.168 1658.65,688.945C1665.85,686.723 1673.54,685.612 1681.72,685.612C1685.98,685.612 1690.25,685.834 1694.52,686.279C1698.78,686.723 1702.61,687.123 1705.98,687.479C1709.9,688.012 1713.72,688.545 1717.45,689.079L1717.45,738.945C1716.03,738.768 1714.43,738.59 1712.65,738.412C1711.23,738.234 1709.63,738.057 1707.85,737.879C1706.07,737.701 1704.21,737.612 1702.25,737.612C1701.18,737.612 1699.85,737.657 1698.25,737.745C1696.65,737.834 1695.14,738.057 1693.72,738.412C1692.3,738.768 1691.05,739.39 1689.98,740.279C1688.92,741.168 1688.38,742.412 1688.38,744.012C1688.38,745.434 1689.58,747.212 1691.98,749.345C1694.38,751.479 1697.32,753.968 1700.78,756.812C1704.25,759.657 1708.07,762.945 1712.25,766.679C1716.43,770.412 1720.25,774.679 1723.72,779.479C1727.18,784.279 1730.12,789.701 1732.52,795.745C1734.92,801.79 1736.12,808.545 1736.12,816.012C1736.12,823.834 1734.87,831.168 1732.38,838.012C1729.9,844.857 1726.03,850.812 1720.78,855.879C1715.54,860.945 1708.83,864.945 1700.65,867.879C1692.47,870.812 1682.78,872.279 1671.58,872.279C1664.83,872.279 1658.56,871.968 1652.78,871.345C1647.01,870.723 1641.9,869.968 1637.45,869.079C1632.3,868.19 1627.58,867.123 1623.32,865.879L1623.32,812.545Z" style="fill:white;fill-rule:nonzero;"/>
        </g>
        <g transform="matrix(1,0,0,1,-228.543,0)">
            <path d="M1759.58,736.545L1726.78,736.545L1726.78,689.879L1851.05,689.879L1851.05,736.545L1818.25,736.545L1818.25,867.745L1759.58,867.745L1759.58,736.545Z" style="fill:white;fill-rule:nonzero;"/>
        </g>
        <g transform="matrix(1,0,0,1,-228.543,0)">
            <path d="M1858.25,812.545C1862.16,813.79 1866.25,814.768 1870.52,815.479C1874.07,816.368 1878.12,817.079 1882.65,817.612C1887.18,818.145 1891.76,818.412 1896.38,818.412C1904.56,818.412 1908.65,815.39 1908.65,809.345C1908.65,807.034 1907.41,804.679 1904.92,802.279C1902.43,799.879 1899.27,797.212 1895.45,794.279C1891.63,791.345 1887.54,788.101 1883.18,784.545C1878.83,780.99 1874.74,776.901 1870.92,772.279C1867.1,767.657 1863.94,762.457 1861.45,756.679C1858.96,750.901 1857.72,744.279 1857.72,736.812C1857.72,728.457 1859.23,721.079 1862.25,714.679C1865.27,708.279 1869.45,702.945 1874.78,698.679C1880.12,694.412 1886.38,691.168 1893.58,688.945C1900.78,686.723 1908.47,685.612 1916.65,685.612C1920.92,685.612 1925.18,685.834 1929.45,686.279C1933.72,686.723 1937.54,687.123 1940.92,687.479C1944.83,688.012 1948.65,688.545 1952.38,689.079L1952.38,738.945C1950.96,738.768 1949.36,738.59 1947.58,738.412C1946.16,738.234 1944.56,738.057 1942.78,737.879C1941.01,737.701 1939.14,737.612 1937.18,737.612C1936.12,737.612 1934.78,737.657 1933.18,737.745C1931.58,737.834 1930.07,738.057 1928.65,738.412C1927.23,738.768 1925.98,739.39 1924.92,740.279C1923.85,741.168 1923.32,742.412 1923.32,744.012C1923.32,745.434 1924.52,747.212 1926.92,749.345C1929.32,751.479 1932.25,753.968 1935.72,756.812C1939.18,759.657 1943.01,762.945 1947.18,766.679C1951.36,770.412 1955.18,774.679 1958.65,779.479C1962.12,784.279 1965.05,789.701 1967.45,795.745C1969.85,801.79 1971.05,808.545 1971.05,816.012C1971.05,823.834 1969.81,831.168 1967.32,838.012C1964.83,844.857 1960.96,850.812 1955.72,855.879C1950.47,860.945 1943.76,864.945 1935.58,867.879C1927.41,870.812 1917.72,872.279 1906.52,872.279C1899.76,872.279 1893.5,871.968 1887.72,871.345C1881.94,870.723 1876.83,869.968 1872.38,869.079C1867.23,868.19 1862.52,867.123 1858.25,865.879L1858.25,812.545Z" style="fill:white;fill-rule:nonzero;"/>
        </g>
        <g transform="matrix(1,0,0,1,-228.543,0)">
            <g transform="matrix(-0.753892,-0.656998,-0.656998,0.753892,3119.64,1153.35)">
                <path d="M1431.58,689.879L1490.78,689.879L1490.78,821.079L1539.85,821.079L1539.85,867.745L1431.58,867.745L1431.58,689.879Z" style="fill:white;fill-rule:nonzero;"/>
            </g>
        </g>
    </g>
</svg>
